<?xml version="1.0"?>
<svg xmlns="http://www.w3.org/2000/svg" xmlns:xlink="http://www.w3.org/1999/xlink" xmlns:svgjs="http://svgjs.com/svgjs" version="1.1" width="512" height="512" x="0" y="0" viewBox="0 0 512 512.001" style="enable-background:new 0 0 512 512" xml:space="preserve" class=""><g><path xmlns="http://www.w3.org/2000/svg" d="m135 150.292969h-60c-8.285156 0-15 6.730469-15 15.03125v60.117187c0 8.296875 6.714844 15.027344 15 15.027344h60c8.285156 0 15-6.730469 15-15.027344v-60.117187c0-8.300781-6.714844-15.03125-15-15.03125zm-15 60.117187h-30v-30.058594h30zm0 0" fill="#008037" data-original="#000000" style=""/><path xmlns="http://www.w3.org/2000/svg" d="m135 270.527344h-60c-8.285156 0-15 6.730468-15 15.03125v60.117187c0 8.296875 6.714844 15.027344 15 15.027344h60c8.285156 0 15-6.730469 15-15.027344v-60.117187c0-8.300782-6.714844-15.03125-15-15.03125zm-15 60.117187h-30v-30.058593h30zm0 0" fill="#008037" data-original="#000000" style=""/><path xmlns="http://www.w3.org/2000/svg" d="m255 150.292969h-60c-8.285156 0-15 6.730469-15 15.03125v60.117187c0 8.296875 6.714844 15.027344 15 15.027344h60c8.285156 0 15-6.730469 15-15.027344v-60.117187c0-8.300781-6.714844-15.03125-15-15.03125zm-15 60.117187h-30v-30.058594h30zm0 0" fill="#008037" data-original="#000000" style=""/><path xmlns="http://www.w3.org/2000/svg" d="m442.5 397.804688-13.921875-8.054688c-9.992187-5.78125-10.019531-20.234375 0-26.03125l13.921875-8.054688c7.175781-4.148437 9.632812-13.339843 5.492188-20.527343l-30-52.066407c-4.144532-7.1875-13.316407-9.652343-20.492188-5.5l-13.921875 8.054688c-10.015625 5.792969-22.5-1.449219-22.5-13.015625v-16.109375c0-8.300781-6.714844-15.027344-15-15.027344h-16.078125v-186.363281c0-30.386719-24.671875-55.109375-55-55.109375h-220c-30.328125 0-55 24.722656-55 55.109375v401.785156c0 30.386719 24.671875 55.105469 55 55.105469h291.078125c8.285156 0 15-6.726562 15-15.027344v-16.109375c0-11.558593 12.484375-18.8125 22.5-13.015625l13.921875 8.054688c7.171875 4.148437 16.347656 1.683594 20.492188-5.503906l30-52.0625c4.140624-7.1875 1.683593-16.378907-5.492188-20.53125zm-156.421875-156.332032c-8.285156 0-15 6.726563-15 15.027344v16.109375c0 11.5625-12.484375 18.8125-22.5 13.015625l-13.921875-8.054688c-7.175781-4.152343-16.351562-1.683593-20.492188 5.503907l-30 52.0625c-4.140624 7.1875-1.683593 16.378906 5.492188 20.527343l13.921875 8.058594c9.992187 5.78125 10.015625 20.234375 0 26.03125l-1.75 1.011719h-171.828125v-270.53125h270v121.238281zm-231.078125-211.414062h220c13.785156 0 25 11.238281 25 25.050781v35.066406h-270v-35.066406c0-13.8125 11.214844-25.050781 25-25.050781zm-25 426.832031v-36.070313h155.597656l28.566406 49.578126c4.144532 7.191406 13.316407 9.652343 20.492188 5.5l13.921875-8.050782c9.109375-5.269531 22.5-.089844 22.5 14.09375h-216.078125c-13.785156 0-25-11.238281-25-25.050781zm384.507812-40.566406-15 26.03125c-31.058593-17.957031-68.429687 2.988281-68.429687 39.585937-13.097656 0-20.300781 0-30 0 0-36.59375-37.34375-57.558594-68.433594-39.585937l-15-26.03125c31.339844-18.152344 31.371094-61.007813 0-79.175781l15-26.03125c31.058594 17.957031 68.433594-2.988282 68.433594-39.585938h30c0 36.007812 36.835937 57.851562 68.429687 39.585938l15 26.03125c-30.898437 17.898437-31.785156 60.765624 0 79.175781zm0 0" fill="#008037" data-original="#000000" style=""/><path xmlns="http://www.w3.org/2000/svg" d="m316.078125 331.648438c-24.8125 0-45 20.226562-45 45.085937 0 24.863281 20.1875 45.089844 45 45.089844s45-20.226563 45-45.089844c0-24.859375-20.1875-45.085937-45-45.085937zm0 60.117187c-8.273437 0-15-6.742187-15-15.03125 0-8.285156 6.726563-15.027344 15-15.027344 8.269531 0 15 6.742188 15 15.027344 0 8.289063-6.730469 15.03125-15 15.03125zm0 0" fill="#008037" data-original="#000000" style=""/></g></svg>
