<svg width="1217" height="512" xmlns="http://www.w3.org/2000/svg">

 <g>
  <title>background</title>
  <rect fill="none" id="canvas_background" height="514" width="1219" y="-1" x="-1"/>
 </g>
 <g>
  <title>Layer 1</title>
  <g stroke="null" transform="rotate(-0.49902641773223877 123.33270263671956,214.6666412353519) " id="svg_1">
   <g stroke="null" id="C">
    <path stroke="#008037" id="svg_2" fill="#00242b" d="m126.08444,282.70043c65.22264,0 74.49385,-45.31184 75.61508,-46.72381l-42.77184,-10.03605c-1.48656,2.41334 -2.46228,27.23106 -33.18265,27.23106c-23.71478,0 -35.73928,-13.20866 -35.73928,-39.26401c0,-25.04707 12.25227,-37.74574 36.42294,-37.74574c28.70016,0 30.55551,20.51113 31.27373,21.48513l43.6881,-7.72742c-1.12641,-1.32214 -9.53077,-43.28677 -73.26064,-43.28677c-51.29786,0 -83.164,26.65198 -83.164,69.12766c0,39.87924 32.60026,66.93995 81.11856,66.93995z"/>
   </g>
  </g>
  <text stroke="#008037" transform="matrix(2.161499045918471,0,0,1.905264103020909,-967.145826777935,-197.02711365809415) " xml:space="preserve" text-anchor="start" font-family="Helvetica, Arial, sans-serif" font-size="141" id="svg_3" y="262.38738" x="571.55739" stroke-width="0" fill="#008037">Wolf3d</text>
 </g>
</svg>